HIERARCHY
ROOT root
{
	OFFSET 0.000000 0.000000 0.000000
	CHANNELS 6 Xposition Yposition Zposition Zrotation Yrotation Xrotation
	JOINT lhip
	{
		OFFSET 0.058581 -0.082280 -0.017664
		CHANNELS 3 Zrotation Yrotation Xrotation
		JOINT lknee
		{
			OFFSET 0.043451 -0.386469 0.008037
			CHANNELS 3 Zrotation Yrotation Xrotation
			JOINT lankle
			{
				OFFSET -0.014790 -0.426874 -0.037428
				CHANNELS 3 Zrotation Yrotation Xrotation
				JOINT ltoe
				{
					OFFSET 0.041054 -0.060286 0.122042
					CHANNELS 3 Zrotation Yrotation Xrotation
					End Site
					{
						OFFSET 0.000000 0.000000 0.000000
					}
				}
			}
		}
	}
	JOINT rhip
	{
		OFFSET -0.060310 -0.090513 -0.013543
		CHANNELS 3 Zrotation Yrotation Xrotation
		JOINT rknee
		{
			OFFSET -0.043257 -0.383688 -0.004843
			CHANNELS 3 Zrotation Yrotation Xrotation
			JOINT rankle
			{
				OFFSET 0.019056 -0.420046 -0.034562
				CHANNELS 3 Zrotation Yrotation Xrotation
				JOINT rtoe
				{
					OFFSET -0.034840 -0.062106 0.130323
					CHANNELS 3 Zrotation Yrotation Xrotation
					End Site
					{
						OFFSET 0.000000 0.000000 0.000000
					}
				}
			}
		}
	}
	JOINT lowerback
	{
		OFFSET 0.004439 0.124404 -0.038385
		CHANNELS 3 Zrotation Yrotation Xrotation
		JOINT upperback
		{
			OFFSET 0.004488 0.137956 0.026820
			CHANNELS 3 Zrotation Yrotation Xrotation
			JOINT chest
			{
				OFFSET -0.002265 0.056032 0.002855
				CHANNELS 3 Zrotation Yrotation Xrotation
				JOINT lowerneck
				{
					OFFSET -0.013390 0.211636 -0.033468
					CHANNELS 3 Zrotation Yrotation Xrotation
					JOINT upperneck
					{
						OFFSET 0.010113 0.088937 0.050410
						CHANNELS 3 Zrotation Yrotation Xrotation
						End Site
						{
							OFFSET 0.000000 0.000000 0.000000
						}
					}
				}
				JOINT lclavicle
				{
					OFFSET 0.071702 0.114000 -0.018898
					CHANNELS 3 Zrotation Yrotation Xrotation
					JOINT lshoulder
					{
						OFFSET 0.122921 0.045205 -0.019046
						CHANNELS 3 Zrotation Yrotation Xrotation
						JOINT lelbow
						{
							OFFSET 0.255332 -0.015649 -0.022946
							CHANNELS 3 Zrotation Yrotation Xrotation
							JOINT lwrist
							{
								OFFSET 0.265709 0.012698 -0.007375
								CHANNELS 3 Zrotation Yrotation Xrotation
								End Site
								{
									OFFSET 0.000000 0.000000 0.000000
								}
							}
						}
					}
				}
				JOINT rclavicle
				{
					OFFSET -0.082954 0.112472 -0.023707
					CHANNELS 3 Zrotation Yrotation Xrotation
					JOINT rshoulder
					{
						OFFSET -0.113228 0.046853 -0.008472
						CHANNELS 3 Zrotation Yrotation Xrotation
						JOINT relbow
						{
							OFFSET -0.260127 -0.014369 -0.031269
							CHANNELS 3 Zrotation Yrotation Xrotation
							JOINT rwrist
							{
								OFFSET -0.269108 0.006794 -0.006027
								CHANNELS 3 Zrotation Yrotation Xrotation
								End Site
								{
									OFFSET 0.000000 0.000000 0.000000
								}
							}
						}
					}
				}
			}
		}
	}
}
MOTION
Frames: 6
Frame Time: 0.033333
1.046438 0.761315 0.982127 -88.227244 3.204751 86.742008 2.728551 -0.988008 5.783877 -2.620866 -15.679839 3.337191 7.430444 8.032969 -19.071934 0.000000 -0.000000 0.000000 2.885609 -2.058115 2.516789 3.665379 3.649431 7.486816 1.199102 -2.001625 -13.408477 0.000000 -0.000000 0.000000 -2.157736 2.757173 4.238391 1.685643 -1.895150 1.895316 1.467468 -1.298621 1.613737 3.288228 5.681459 13.114320 4.213210 3.751398 3.817017 -25.242205 1.554115 6.311566 -64.467921 -6.293962 8.625582 11.448957 -22.216439 7.007861 -3.852363 -0.936858 -7.654034 23.169206 -1.221487 4.784005 64.283143 3.915984 9.412735 -15.294482 20.191760 -2.157891 8.420489 0.676649 -10.527549 
1.046174 0.761174 0.982065 -88.201900 3.230305 86.690811 2.740294 -1.032316 5.867685 -2.603144 -15.643058 3.342096 7.392892 7.972552 -19.106182 0.000000 -0.000000 0.000000 2.898059 -1.985220 2.668291 3.652175 3.531401 7.359814 1.277100 -1.998872 -13.410661 0.000000 -0.000000 0.000000 -2.107258 2.726997 4.332342 1.685790 -1.857743 1.899397 1.475541 -1.355445 1.720891 3.323917 5.659724 13.018264 4.130336 3.694298 4.036710 -25.194792 1.612033 6.267679 -64.579612 -6.332402 8.645201 11.420236 -22.257150 7.083835 -3.996999 -0.858830 -7.769792 23.036564 -1.285433 4.703337 64.353054 3.888937 9.507292 -15.288661 20.393737 -1.952129 8.515098 0.630008 -10.611424 
1.045916 0.760994 0.981942 -88.183370 3.254584 86.818604 2.702043 -1.185577 5.778776 -2.504562 -15.575860 3.238029 7.377434 8.082180 -18.987644 0.000000 -0.000000 0.000000 2.945732 -1.902272 2.613125 3.613135 3.582637 7.229713 1.352106 -2.090227 -13.327497 0.000000 -0.000000 0.000000 -2.036009 2.665278 4.321093 1.655480 -1.830982 1.710584 1.442714 -1.401268 1.794669 3.333372 5.664672 12.831006 4.110671 3.667820 4.137278 -25.190953 1.698923 6.203943 -64.586192 -6.360860 8.695291 11.431830 -22.103845 7.081273 -3.862255 -1.051938 -7.712570 22.974445 -1.354582 4.693062 64.446257 3.821438 9.662033 -15.352930 20.530249 -1.869739 8.478354 0.586028 -10.741523 
1.045608 0.760685 0.981971 -88.108314 3.266560 86.843557 2.770654 -1.090717 5.669291 -2.657266 -15.676440 3.421007 7.327060 7.887409 -19.124310 0.000000 -0.000000 0.000000 2.939030 -1.956645 2.589067 3.575792 3.541863 7.275838 1.451050 -1.978418 -13.397983 0.000000 -0.000000 0.000000 -1.999968 2.623313 4.292410 1.623363 -1.856857 1.668737 1.435383 -1.376026 1.862622 3.306150 5.714670 12.704755 4.110854 3.626355 4.196519 -25.181122 1.657189 6.243965 -64.648198 -6.417604 8.700822 11.444700 -22.101106 7.070525 -3.678234 -1.113693 -7.599070 22.991309 -1.390328 4.710832 64.467077 3.771727 9.612152 -15.434555 20.673137 -1.894927 8.420488 0.566560 -10.780267 
1.045637 0.760657 0.981957 -88.206929 3.262428 86.910715 2.781443 -1.044056 5.582104 -2.700582 -15.506217 3.462827 7.408098 7.950709 -19.081013 0.000000 -0.000000 0.000000 2.925289 -1.915982 2.498880 3.611024 3.563852 7.258155 1.392889 -2.033985 -13.310824 0.000000 -0.000000 0.000000 -1.994177 2.657304 4.258615 1.623978 -1.810939 1.646977 1.414073 -1.391363 1.892340 3.351987 5.674708 12.675398 4.110873 3.639764 4.221080 -25.203798 1.709933 6.181923 -64.604297 -6.432739 8.682083 11.433108 -22.149053 7.084761 -3.734151 -1.061336 -7.564023 23.002550 -1.464720 4.681086 64.533631 3.788258 9.629138 -15.522652 20.733517 -1.914587 8.410624 0.542710 -10.727685 
1.045509 0.760449 0.981921 -88.218672 3.290065 86.900039 2.789587 -1.047234 5.614232 -2.677271 -15.487813 3.407970 7.362510 7.999949 -19.094372 0.000000 -0.000000 0.000000 2.945917 -1.920847 2.506100 3.593641 3.589133 7.293281 1.412234 -2.034847 -13.364300 0.000000 -0.000000 0.000000 -1.961254 2.639681 4.293779 1.659060 -1.825439 1.708970 1.435900 -1.404356 1.899809 3.402116 5.662024 12.668865 4.124379 3.661345 4.228606 -25.254555 1.707366 6.213158 -64.621587 -6.424554 8.702892 11.450074 -22.339456 7.078752 -3.802239 -1.025997 -7.746409 22.966657 -1.428328 4.677603 64.498210 3.805106 9.646018 -15.499450 20.832817 -1.897865 8.431062 0.477052 -10.749938 
